<svg width="28" height="28" viewBox="0 0 28 28" fill="none" xmlns="http://www.w3.org/2000/svg">
<g clip-path="url(#clip0)">
<path d="M26.9961 6.48346L26.996 6.48354L26.9994 6.48675C27.5652 7.02688 27.9 7.77263 27.9 8.62354V21.8783C27.9 22.7012 27.5396 23.4748 26.9977 24.0167L26.9961 24.0184C26.456 24.5842 25.7102 24.919 24.8593 24.919H3.14068C2.31782 24.919 1.54416 24.5586 1.00227 24.0167L1.00061 24.0151C0.434764 23.475 0.1 22.7292 0.1 21.8783V8.62354C0.1 7.80068 0.460375 7.02702 1.00227 6.48513L1.00229 6.48515L1.00389 6.48346C1.54402 5.91762 2.28977 5.58286 3.14068 5.58286H7.53232H7.63232V5.48286V5.42963C7.63232 4.79151 7.8874 4.20456 8.32166 3.7703C8.75551 3.33645 9.3423 3.08096 10.0076 3.08096H17.9924C18.6305 3.08096 19.2175 3.33604 19.6517 3.7703L19.6517 3.77033L19.6539 3.77241C20.0848 4.17801 20.3411 4.78976 20.3411 5.42963V5.48286V5.58286H20.4411H24.8593C25.7102 5.58286 26.456 5.91762 26.9961 6.48346ZM26.6868 21.9783H26.716V21.8783V8.62354C26.716 8.1173 26.5187 7.66619 26.181 7.3285C25.8433 6.9908 25.3922 6.7935 24.8859 6.7935H19.7491C19.405 6.7935 19.1304 6.51888 19.1304 6.17487V5.40301C19.1304 5.08618 19.0151 4.79379 18.8084 4.58705C18.6016 4.38031 18.3092 4.26499 17.9924 4.26499H10.0342C9.71739 4.26499 9.425 4.38031 9.21826 4.58705C9.01153 4.79379 8.8962 5.08618 8.8962 5.40301V6.17487C8.8962 6.51888 8.62158 6.7935 8.27757 6.7935H3.14068C2.63445 6.7935 2.18334 6.9908 1.84564 7.3285C1.50794 7.66619 1.31065 8.1173 1.31065 8.62354V21.8783C1.31065 22.3845 1.50794 22.8356 1.84564 23.1733C2.18334 23.511 2.63445 23.7083 3.14068 23.7083H24.8593C25.3656 23.7083 25.8167 23.511 26.1544 23.1733C26.4697 22.858 26.6626 22.4439 26.6868 21.9783Z" fill="black" stroke="white" stroke-width="0.2"/>
<path d="M17.6891 18.9693L17.6902 18.9682C18.6389 18.0195 19.2368 16.7168 19.2099 15.2768C19.2097 13.8395 18.6399 12.537 17.6902 11.5873L17.6902 11.5873L17.6891 11.5863C16.7405 10.6648 15.4385 10.0675 13.9997 10.0675C12.562 10.0675 11.2591 10.6373 10.3092 11.5873L10.3092 11.5873L10.3082 11.5883C9.38669 12.5369 8.78941 13.8389 8.78941 15.2778C8.78941 16.7155 9.35925 18.0183 10.3092 18.9682L10.3102 18.9693C11.2588 19.8908 12.5608 20.488 13.9997 20.488C15.4385 20.488 16.7405 19.8908 17.6891 18.9693ZM9.43921 10.6907C10.5924 9.53749 12.2175 8.80361 13.9997 8.80361C15.7819 8.80361 17.407 9.53749 18.5601 10.6907C19.7133 11.8439 20.4472 13.4689 20.4472 15.2511C20.4472 17.0336 19.7397 18.632 18.5601 19.8116C17.407 20.9648 15.7819 21.6987 13.9997 21.6987C12.2172 21.6987 10.6188 20.9912 9.43921 19.8116C8.28603 18.6584 7.55215 17.0334 7.55215 15.2511C7.55215 13.4686 8.25963 11.8703 9.43921 10.6907Z" fill="black" stroke="white" stroke-width="0.2"/>
<path d="M24.6793 9.98094C24.6793 10.646 24.1401 11.1851 23.4751 11.1851C22.81 11.1851 22.2709 10.646 22.2709 9.98094C22.2709 9.31589 22.81 8.77676 23.4751 8.77676C24.1401 8.77676 24.6793 9.31589 24.6793 9.98094Z" fill="black" stroke="white" stroke-width="0.2"/>
</g>
<defs>
<clipPath id="clip0">
<rect width="28" height="28" fill="white"/>
</clipPath>
</defs>
</svg>
