<svg width="40" height="38" viewBox="0 0 40 38" fill="none" xmlns="http://www.w3.org/2000/svg">
<path d="M5.93611 29.1277V28.8786L5.687 28.8777C2.84845 28.8677 0.541992 26.5552 0.541992 23.7144V6.24342C0.541992 3.39618 2.85854 1.08008 5.70533 1.08008H34.2536C37.1004 1.08008 39.417 3.39618 39.417 6.24342V23.7144C39.417 26.5612 37.1004 28.8777 34.2536 28.8777H17.0797H17.0013L16.9369 28.9225L5.93611 36.5773V29.1277ZM5.70533 27.0706H7.74324V32.6399V33.1184L8.13603 32.8451L16.4343 27.0706H34.2536C36.1045 27.0706 37.6099 25.565 37.6099 23.7144V6.24342C37.6099 4.39229 36.1045 2.88721 34.2536 2.88721H5.70533C3.85447 2.88721 2.34912 4.39229 2.34912 6.24342V23.7144C2.34912 25.565 3.85445 27.0706 5.70533 27.0706Z" fill="#2A2C30" stroke="white" stroke-width="0.5"/>
</svg>
