<svg width="42" height="42" viewBox="0 0 42 42" fill="none" xmlns="http://www.w3.org/2000/svg">
<path d="M6.93611 31.1277V30.8786L6.687 30.8777C3.84845 30.8677 1.54199 28.5552 1.54199 25.7144V8.24342C1.54199 5.39618 3.85854 3.08008 6.70533 3.08008H35.2536C38.1004 3.08008 40.417 5.39618 40.417 8.24342V25.7144C40.417 28.5612 38.1004 30.8777 35.2536 30.8777H18.0797H18.0013L17.9369 30.9225L6.93611 38.5773V31.1277ZM6.70533 29.0706H8.74324V34.6399V35.1184L9.13603 34.8451L17.4343 29.0706H35.2536C37.1045 29.0706 38.6099 27.565 38.6099 25.7144V8.24342C38.6099 6.39229 37.1045 4.88721 35.2536 4.88721H6.70533C4.85447 4.88721 3.34912 6.39229 3.34912 8.24342V25.7144C3.34912 27.565 4.85445 29.0706 6.70533 29.0706Z" fill="#2A2C30" stroke="white" stroke-width="0.5"/>
<path d="M12.0801 11.2324H29.878V13.0395H12.0801V11.2324Z" fill="#2A2C30" stroke="white" stroke-width="0.5"/>
<path d="M12.0801 16.1543H29.878V17.9614H12.0801V16.1543Z" fill="#2A2C30" stroke="white" stroke-width="0.5"/>
<path d="M12.0801 21.0762H29.878V22.8833H12.0801V21.0762Z" fill="#2A2C30" stroke="white" stroke-width="0.5"/>
<rect width="42" height="42" stroke="white"/>
</svg>
