<svg width="8" height="14" viewBox="0 0 8 14" fill="none" xmlns="http://www.w3.org/2000/svg">
<path d="M6.76372 0.00291293L5.07793 0C3.184 0 1.96006 1.35233 1.96006 3.44542V5.03399H0.265074C0.118607 5.03399 0 5.16187 0 5.3196V7.62126C0 7.77899 0.118743 7.90672 0.265074 7.90672H1.96006V13.7145C1.96006 13.8723 2.07867 14 2.22514 14H4.43661C4.58308 14 4.70169 13.8721 4.70169 13.7145V7.90672H6.68352C6.82999 7.90672 6.9486 7.77899 6.9486 7.62126L6.94941 5.3196C6.94941 5.24386 6.92141 5.17133 6.87178 5.11773C6.82214 5.06414 6.75452 5.03399 6.6842 5.03399H4.70169V3.68734C4.70169 3.04008 4.84491 2.71151 5.62782 2.71151L6.76345 2.71107C6.90978 2.71107 7.02839 2.58319 7.02839 2.4256V0.288381C7.02839 0.130936 6.90992 0.00320423 6.76372 0.00291293Z" fill="#FF6A00"/>
</svg>
