<svg width="30" height="28" viewBox="0 0 30 28" fill="none" xmlns="http://www.w3.org/2000/svg">
<path d="M29.8531 6.78682L23.468 0.40128C23.4174 0.351487 23.3566 0.312982 23.2899 0.288399C23.2123 0.235408 23.121 0.205934 23.0271 0.203613H17.5084C17.2314 0.203613 17.0068 0.428246 17.0068 0.705305C17.0068 1.81361 16.1083 2.71207 15 2.71207C13.8917 2.71207 12.9932 1.81361 12.9932 0.705305C12.9932 0.428246 12.7686 0.203613 12.4915 0.203613H6.97291C6.87897 0.205996 6.78766 0.235471 6.71002 0.288399C6.64336 0.312982 6.58266 0.351487 6.53192 0.40128L0.146886 6.78682C-0.048962 6.98273 -0.048962 7.3003 0.146886 7.49621L3.69435 11.0432C3.89026 11.239 4.20783 11.239 4.40374 11.0432L6.47122 8.9757V27.295C6.47122 27.572 6.69585 27.7967 6.97291 27.7967H23.0271C23.3041 27.7967 23.5288 27.572 23.5288 27.295V8.9757L25.5962 11.0432C25.7921 11.239 26.1097 11.239 26.3056 11.0432L29.8531 7.49621C30.0489 7.3003 30.0489 6.98273 29.8531 6.78682ZM25.9509 9.97908L23.3818 7.40992C23.1858 7.21401 22.8681 7.21407 22.6722 7.41004C22.5782 7.50411 22.5254 7.63167 22.5254 7.76461V26.7933H7.4746V7.76461C7.47454 7.48756 7.24991 7.26299 6.97278 7.26305C6.83977 7.26305 6.71228 7.31591 6.61821 7.40992L4.04905 9.97908L1.21098 7.14151L7.14499 1.207H12.0315C12.307 2.84646 13.8594 3.95213 15.4989 3.67658C16.7643 3.46386 17.7558 2.47245 17.9685 1.207H22.855L28.789 7.14151L25.9509 9.97908Z" fill="#FF6A00"/>
</svg>
